<svg xmlns="http://www.w3.org/2000/svg" viewBox="0 0 32 32"><path d="M16.186 0c2.894 0 5.03.774 6.35 2.304 1.518 1.758 1.386 3.888 1.348 4.266v3.394c.408.48.636 1.092.636 1.722v2.578a2.64 2.64 0 01-1.494 2.392 14.896 14.896 0 01-1.872 3.726c-.154.22-.302.418-.442.594v2.152c.096.712-.018.32.474 1.128l.388.308.02.012 2.814 1.43.058.012c2.26.494 6.462 1.42 7.518 5.408a.459.459 0 01-.436.574L.33 31.98a.457.457 0 01-.316-.556c1.06-4.016 5.296-5.038 7.568-5.588l.336-.084 2.276-1.262.216-.16.19-.2c.442-.756.336-.388.426-1.064v-2.104c-.442-.592-1.636-2.338-2.216-4.646a2.663 2.663 0 01-.96-2.052v-2.578c0-.63.23-1.242.636-1.724V6.568c-.038-.376-.168-2.506 1.348-4.264C11.154.774 13.292 0 16.186 0z" fill="#000" fill-rule="nonzero"/></svg>