<svg xmlns="http://www.w3.org/2000/svg" viewBox="0 0 32 32"><path d="M28 0a4 4 0 014 4v24a4 4 0 01-4 4H4a4 4 0 01-4-4V4a4 4 0 014-4h24zm-4.993 8a1.16 1.16 0 00-.771.277l-.107.1-8.465 8.849-3.793-3.974a1.17 1.17 0 00-.878-.377c-.294 0-.551.093-.77.277l-.106.1-1.756 1.833c-.24.25-.361.556-.361.916 0 .307.088.575.265.803l.096.111 6.426 6.708c.241.251.533.377.877.377.295 0 .552-.092.771-.277l.107-.1L25.639 12.04c.24-.251.361-.556.361-.915 0-.308-.088-.576-.265-.805l-.096-.11-1.756-1.833A1.169 1.169 0 0023.007 8z" fill="#000" fill-rule="evenodd"/></svg>