<svg xmlns="http://www.w3.org/2000/svg" viewBox="0 0 22 32"><path d="M20.777 10c.331 0 .618.136.86.41.242.27.363.592.363.965v19.25c0 .373-.121.694-.363.966-.242.273-.529.409-.86.409-.33 0-.616-.136-.858-.41l-8.556-9.624A1.403 1.403 0 0111 21c0-.373.121-.694.363-.966l8.556-9.625c.242-.273.528-.409.858-.409zM1.223 0c.33 0 .616.136.858.41l8.556 9.624c.242.272.363.593.363.966s-.121.694-.363.966L2.081 21.59c-.242.273-.528.409-.858.409-.331 0-.618-.136-.86-.41A1.403 1.403 0 010 20.626V1.375C0 1.002.121.681.363.409.605.136.892 0 1.223 0z" fill="#000" fill-rule="evenodd"/></svg>