<svg xmlns="http://www.w3.org/2000/svg" viewBox="0 0 27 32"><path d="M18.453 27.938c0 .22.076.398.226.542a.793.793 0 00.57.214h.798a.83.83 0 00.56-.206.69.69 0 00.238-.55V15.4a.764.764 0 00-.238-.562.756.756 0 00-.56-.238h-.798a.76.76 0 00-.56.238.77.77 0 00-.236.562v12.538zM14.855 15.4a.756.756 0 00-.23-.562.787.787 0 00-.562-.238h-.8c-.216 0-.4.08-.542.238a.815.815 0 00-.212.562v12.538c0 .22.068.398.204.542.136.142.316.214.55.214h.8c.21 0 .4-.072.562-.206.158-.136.23-.32.23-.55V15.4zM10.713 4.654c1.964-.03 3.936-.03 5.942 0 0-.16.014-.32.042-.478a1.172 1.172 0 000-.442V3.43a6.095 6.095 0 00-1.514-.228c-.534-.01-1.038-.02-1.51-.02-.504 0-1.016.01-1.538.02a6.029 6.029 0 00-1.504.228v.304c0 .136.006.29.022.45.012.168.034.32.06.47M8.873 15.4a.775.775 0 00-.234-.562.767.767 0 00-.562-.238h-.792a.692.692 0 00-.544.238.8.8 0 00-.216.562v12.538c0 .22.072.398.216.542a.73.73 0 00.544.214h.792a.843.843 0 00.562-.206.7.7 0 00.234-.55V15.4zm4.8-3.11c1.758-.026 3.512-.068 5.27-.12a56.607 56.607 0 005.272-.408v17.094c0 .856-.304 1.6-.898 2.214a2.93 2.93 0 01-2.19.93H6.199c-.856 0-1.594-.304-2.218-.922-.62-.606-.926-1.348-.926-2.222V11.762a54.42 54.42 0 004.984.43c1.646.064 3.304.098 4.982.098h.652zm13.316-5v1.408c-.504.272-1.34.492-2.512.664a43.83 43.83 0 01-3.79.384 61.22 61.22 0 01-3.95.156c-1.28.012-2.3.02-3.064.02-.752 0-1.77-.008-3.064-.02a61.732 61.732 0 01-3.976-.156 48.217 48.217 0 01-3.762-.372c-1.16-.168-1.986-.39-2.49-.676a5.192 5.192 0 01-.044-.708V6.552c0-.242.014-.49.044-.736.336-.184.824-.352 1.45-.48a22.43 22.43 0 011.998-.314 36.84 36.84 0 012.092-.184c.692-.038 1.224-.078 1.606-.102-.112-1.114-.032-1.984.234-2.616.27-.624.67-1.094 1.216-1.394.542-.308 1.212-.508 2.008-.598A25.268 25.268 0 0113.673 0c.752 0 1.494.016 2.236.062a6.31 6.31 0 011.992.412c.586.244 1.05.614 1.4 1.118.346.504.52 1.216.52 2.142v.49c0 .166-.016.336-.038.512.392.024.93.064 1.608.102.682.042 1.382.1 2.098.184.712.08 1.392.186 2.028.314.644.128 1.132.296 1.472.48V7.29z" fill="#000" fill-rule="nonzero"/></svg>