<svg xmlns="http://www.w3.org/2000/svg" viewBox="0 0 32 32"><path d="M21.334 16c0-1.472-.521-2.729-1.564-3.77-1.041-1.043-2.298-1.564-3.77-1.564s-2.729.521-3.77 1.564c-1.043 1.041-1.564 2.298-1.564 3.77s.521 2.729 1.564 3.77c1.041 1.043 2.298 1.564 3.77 1.564s2.729-.521 3.77-1.564c1.043-1.041 1.564-2.298 1.564-3.77zM32 13.73v4.624a.809.809 0 01-.166.48.641.641 0 01-.418.27l-3.854.584c-.264.75-.535 1.381-.812 1.896.487.693 1.23 1.651 2.23 2.874.139.167.208.34.208.522 0 .18-.063.34-.188.478-.375.515-1.062 1.265-2.062 2.25-1 .987-1.653 1.48-1.958 1.48-.167 0-.347-.063-.542-.188l-2.876-2.25c-.61.32-1.243.584-1.896.792-.221 1.89-.423 3.18-.604 3.874-.097.39-.347.584-.75.584h-4.624a.782.782 0 01-.51-.178.609.609 0 01-.24-.446l-.584-3.834c-.68-.223-1.305-.48-1.874-.772L7.542 29a.75.75 0 01-.522.188.718.718 0 01-.52-.23c-1.75-1.583-2.895-2.75-3.438-3.5a.811.811 0 01.022-.958c.208-.292.562-.754 1.062-1.386.5-.632.875-1.121 1.124-1.468a10.355 10.355 0 01-.854-2.062L.604 19.02a.653.653 0 01-.438-.26.789.789 0 01-.166-.49v-4.624c0-.167.055-.327.166-.48a.634.634 0 01.396-.27l3.876-.584c.195-.639.465-1.277.812-1.916-.556-.792-1.3-1.75-2.23-2.876-.139-.167-.208-.333-.208-.5 0-.139.063-.298.188-.478.361-.5 1.045-1.247 2.052-2.24 1.007-.993 1.663-1.49 1.968-1.49.181 0 .362.07.542.208l2.876 2.23a11.77 11.77 0 011.896-.792c.221-1.89.423-3.18.604-3.874.097-.39.347-.584.75-.584h4.624c.195 0 .365.06.51.178a.609.609 0 01.24.446l.584 3.834c.68.223 1.305.48 1.874.772L24.48 3a.672.672 0 01.5-.188c.18 0 .353.07.52.208 1.792 1.653 2.938 2.834 3.438 3.542.097.112.146.265.146.458a.803.803 0 01-.168.48c-.208.292-.562.754-1.062 1.386-.5.632-.875 1.121-1.124 1.468.36.695.645 1.375.854 2.042l3.812.584c.18.027.326.113.438.26.11.145.166.309.166.49z" fill="#000" fill-rule="evenodd"/></svg>