<svg xmlns="http://www.w3.org/2000/svg" viewBox="0 0 32 32"><path fill="none" d="M0 0h32v32H0z"/><path d="M31.896 17.447 29.375 7.346a4.906 4.906 0 0 0-2.389-3.098c-1.195-.653-2.562-.785-3.904-.354l-.847.285a.882.882 0 0 0-.555 1.125l.277.84a.891.891 0 0 0 1.125.563l.729-.243c.605-.201 1.278-.201 1.848.097a2.22 2.22 0 0 1 1.132 1.431l2.133 8.551a15.219 15.219 0 0 0-4.508-.694c-1.938 0-4.062.389-6.384 1.486h-4.066c-2.272-1.099-4.445-1.488-6.384-1.488-1.743 0-3.278.312-4.507.694L5.208 7.99a2.203 2.203 0 0 1 1.139-1.431c.563-.296 1.235-.296 1.841-.095l.729.244a.893.893 0 0 0 1.125-.563l.278-.841a.883.883 0 0 0-.565-1.124l-.847-.285a4.893 4.893 0 0 0-3.897.354 4.91 4.91 0 0 0-2.389 3.098l-2.52 10.1a3.573 3.573 0 0 0-.104.861v3.903c0 3.442 2.869 6.326 6.406 6.326h2.063c3.348 0 6.135-2.556 6.385-5.856l.159-2.147h1.987l.159 2.147c.249 3.25 3.032 5.856 6.377 5.856h2.063c3.535 0 6.401-2.834 6.401-6.329v-3.9a3.279 3.279 0 0 0-.102-.861zm-20.597 4.961c-.111 1.445-1.354 2.57-2.833 2.57H6.399c-1.567-.047-2.845-1.242-2.845-2.77v-2.083a12.034 12.034 0 0 1 4.035-.722c1.327 0 2.625.243 3.883.722l-.173 2.283zm17.147-.2c0 1.528-1.278 2.772-2.848 2.772h-2.063c-1.479 0-2.722-1.125-2.833-2.57l-.174-2.285a10.876 10.876 0 0 1 3.889-.722c1.612 0 3.022.361 4.029.722v2.083z"/></svg>