<svg xmlns="http://www.w3.org/2000/svg" viewBox="0 0 32 32"><path d="M16 0c2.167 0 4.238.423 6.214 1.27 1.976.844 3.679 1.98 5.108 3.408 1.428 1.43 2.564 3.132 3.408 5.108A15.616 15.616 0 0132 16c0 2.167-.423 4.238-1.27 6.214-.844 1.976-1.98 3.679-3.408 5.108-1.43 1.428-3.132 2.564-5.108 3.408A15.616 15.616 0 0116 32c-2.167 0-4.238-.423-6.214-1.27-1.976-.844-3.679-1.98-5.108-3.408-1.428-1.43-2.564-3.132-3.408-5.108A15.616 15.616 0 010 16c0-2.167.423-4.238 1.27-6.214.844-1.976 1.98-3.679 3.408-5.108C6.108 3.25 7.81 2.114 9.786 1.27A15.616 15.616 0 0116 0zm0 2.286c-2.261 0-4.41.535-6.446 1.604l3.464 3.468c.976-.333 1.97-.5 2.982-.5 1.012 0 2.006.167 2.982.5l3.464-3.468C20.41 2.82 18.261 2.286 16 2.286zM3.894 22.446l3.464-3.464a9.168 9.168 0 01-.5-2.982c0-1.012.167-2.006.5-2.982L3.894 9.554C2.822 11.59 2.286 13.739 2.286 16s.536 4.41 1.608 6.446zM16 29.714c2.261 0 4.41-.536 6.446-1.608l-3.464-3.464c-.976.333-1.97.5-2.982.5a9.168 9.168 0 01-2.982-.5l-3.464 3.464c2.036 1.072 4.185 1.608 6.446 1.608zm0-6.856c1.893 0 3.51-.67 4.848-2.01 1.34-1.339 2.01-2.955 2.01-4.848 0-1.893-.67-3.51-2.01-4.848-1.339-1.34-2.955-2.01-4.848-2.01-1.893 0-3.51.67-4.848 2.01-1.34 1.339-2.01 2.955-2.01 4.848 0 1.893.67 3.51 2.01 4.848 1.339 1.34 2.955 2.01 4.848 2.01zm8.642-3.876l3.464 3.464c1.072-2.036 1.608-4.185 1.608-6.446s-.536-4.41-1.608-6.446l-3.464 3.464c.333.976.5 1.97.5 2.982a9.168 9.168 0 01-.5 2.982z" fill="#000" fill-rule="nonzero"/></svg>