<svg xmlns="http://www.w3.org/2000/svg" viewBox="0 0 32 27"><path fill="none" d="M0 0h32v27H0z"/><path d="M3.097 6.231a3.108 3.108 0 0 0 3.097-3.116A3.107 3.107 0 0 0 3.097 0 3.107 3.107 0 0 0 0 3.115a3.107 3.107 0 0 0 3.097 3.116zm8.258-5.193A2.07 2.07 0 0 0 9.29 3.115c0 1.149.923 2.077 2.065 2.077h18.58A2.069 2.069 0 0 0 32 3.115a2.07 2.07 0 0 0-2.065-2.077h-18.58zm0 10.385A2.069 2.069 0 0 0 9.29 13.5c0 1.149.923 2.077 2.065 2.077h18.58A2.069 2.069 0 0 0 32 13.5a2.069 2.069 0 0 0-2.065-2.077h-18.58zm0 10.385a2.069 2.069 0 0 0-2.065 2.077 2.07 2.07 0 0 0 2.065 2.077h18.58A2.07 2.07 0 0 0 32 23.885a2.069 2.069 0 0 0-2.065-2.077h-18.58zM3.097 27a3.107 3.107 0 0 0 3.097-3.115 3.108 3.108 0 0 0-3.097-3.116A3.107 3.107 0 0 0 0 23.885 3.107 3.107 0 0 0 3.097 27zm3.097-13.5a3.107 3.107 0 0 0-3.097-3.115A3.107 3.107 0 0 0 0 13.5a3.107 3.107 0 0 0 3.097 3.115A3.107 3.107 0 0 0 6.194 13.5z"/></svg>