<svg xmlns="http://www.w3.org/2000/svg" viewBox="0 0 32 32"><path d="M10.44 19.334c-2.508.161-4.784 1.116-6.075 4.518a.954.954 0 01-.912.624c-.694 0-2.841-1.73-3.453-2.147C0 27.476 2.371 32 8 32c4.742 0 8-2.736 8-7.512 0-.194-.04-.38-.06-.57l-5.5-4.584zM28.617 0c-.947 0-1.835.42-2.513 1.028C13.33 12.441 12 12.708 12 16.068c0 .856.204 1.673.546 2.419l3.989 3.324c.45.112.915.189 1.399.189 3.882 0 6.132-2.842 13.197-16.029.462-.897.869-1.865.869-2.874C32 1.29 30.375 0 28.618 0z" fill="#000" fill-rule="nonzero"/></svg>