<svg xmlns="http://www.w3.org/2000/svg" viewBox="0 0 30 32"><path d="M29.621 17.232c0 2-.39 3.91-1.172 5.73-.781 1.82-1.832 3.39-3.154 4.71-1.321 1.323-2.892 2.375-4.712 3.156A14.375 14.375 0 0114.853 32c-2 0-3.91-.39-5.73-1.172-1.82-.781-3.39-1.833-4.712-3.156-1.321-1.32-2.372-2.89-3.154-4.71a14.375 14.375 0 01-1.172-5.73c0-2.335.516-4.533 1.546-6.596A14.497 14.497 0 015.99 5.442a2.445 2.445 0 011.836-.48c.672.09 1.208.411 1.606.962.41.54.567 1.146.472 1.818a2.387 2.387 0 01-.954 1.626 9.803 9.803 0 00-2.912 3.48 9.679 9.679 0 00-1.028 4.384c0 1.333.26 2.606.778 3.818a9.887 9.887 0 002.106 3.144 9.917 9.917 0 003.144 2.106c1.212.52 2.485.78 3.818.78 1.334 0 2.606-.26 3.818-.78a9.917 9.917 0 003.144-2.106 9.887 9.887 0 002.106-3.144 9.605 9.605 0 00.778-3.818 9.67 9.67 0 00-1.028-4.384 9.826 9.826 0 00-2.912-3.48 2.387 2.387 0 01-.954-1.626 2.344 2.344 0 01.472-1.818 2.29 2.29 0 011.616-.962 2.402 2.402 0 011.826.48 14.497 14.497 0 014.358 5.194 14.558 14.558 0 011.546 6.596h-.004zM17.313 2.462V14.77c0 .668-.243 1.245-.73 1.732-.488.487-1.064.73-1.73.73-.666.001-1.244-.242-1.732-.73-.488-.49-.732-1.067-.732-1.732V2.462c0-.667.244-1.243.732-1.73.488-.487 1.066-.73 1.732-.732.666 0 1.242.244 1.73.732.487.488.73 1.065.73 1.73z" fill="#000" fill-rule="nonzero"/></svg>