<svg xmlns="http://www.w3.org/2000/svg" viewBox="0 0 22 32"><path d="M14.446 25.034V32H7.468v-6.966h6.978zM10.647 0c3.202 0 5.886.79 8.036 2.38C20.89 4.013 22 6.442 22 9.597c0 1.943-.482 3.604-1.444 4.953-.561.817-1.594 1.816-3.11 3.022L16 18.719c-.688.546-1.131 1.165-1.347 1.864-.125.403-.203 1.05-.228 1.93l-.015.999H7.587l.041-1.137c.096-2.186.317-3.725.682-4.652.405-1.03 1.385-2.141 2.934-3.375l1.498-1.197a4.637 4.637 0 001.046-1.089c.464-.652.691-1.356.691-2.132a4.27 4.27 0 00-.786-2.502c-.464-.667-1.37-1.023-2.78-1.023-1.367 0-2.272.433-2.802 1.294-.595.967-.888 1.957-.888 2.982v.668H0l.029-.696C.2 6.485 1.65 3.472 4.383 1.692 6.098.562 8.191 0 10.647 0z" fill="#000" fill-rule="nonzero"/></svg>