<svg xmlns="http://www.w3.org/2000/svg" viewBox="0 0 30 32"><path d="M26.234 22v4.12c0 .472.121.873.364 1.205.243.332.512.498.807.498.253 0 .48-.048.68-.144.2-.097.512-.36.934-.787L30 28.273c-1.266 1.5-2.669 2.549-4.209 3.149a8.238 8.238 0 01-3.07.578c-1.92 0-3.322-.568-4.208-1.703-.507-.642-.876-1.596-1.108-2.86-1.793 1.821-3.818 3.107-6.076 3.856-1.371.471-2.721.707-4.05.707-1.773 0-3.429-.573-4.969-1.719C.77 29.135 0 27.352 0 24.931c0-1.054.179-2.031.536-2.93H9.49a7.438 7.438 0 00-.059.939c0 1.435.322 2.522.966 3.26.643.74 1.366 1.11 2.167 1.11 1.055 0 2.036-.322 2.943-.965.507-.385 1.108-.985 1.804-1.799V22h8.924zM13.354 0c3.671 0 6.74.718 9.21 2.153 2.447 1.456 3.67 4.133 3.67 8.032V17H17.31v-2.06c-1.73.428-3.249 1.103-4.557 2.024l-.051.036H5.797c2.777-1.44 6.646-2.887 11.608-4.341V7.87c0-1.949-.406-3.39-1.218-4.32-.813-.933-2.252-1.398-4.32-1.398-1.16 0-2.115.22-2.864.658-.749.44-1.123.99-1.123 1.655 0 .257.042.471.126.642.064.129.15.263.261.404l.499.592c.295.365.533.766.712 1.205.18.44.269.905.269 1.398 0 1.242-.406 2.2-1.219 2.875-.812.675-1.756 1.012-2.832 1.012-1.245 0-2.305-.374-3.18-1.124-.876-.75-1.313-1.831-1.313-3.245 0-2.528 1.17-4.53 3.512-6.008C7.057.739 9.937 0 13.355 0z" fill="#000" fill-rule="evenodd"/></svg>