<svg xmlns="http://www.w3.org/2000/svg" viewBox="0 0 32 32"><path fill="none" d="M0 0h32v32H0z"/><path d="M20.83 13.999c1.768 0 3.429.687 4.678 1.935l1.224 1.224c2.501-1.108 4.453-3.331 5.101-6.04a9.094 9.094 0 0 0 .013-4.274c-.163-.68-1.026-.907-1.521-.413l-4.306 4.306h-4.724V6.068l4.306-4.306c.494-.494.267-1.358-.413-1.521a9.112 9.112 0 0 0-4.275.014c-3.456.826-6.148 3.763-6.699 7.274a8.273 8.273 0 0 0-.103 1.526l5.174 5.179a4.742 4.742 0 0 1 1.545-.235zm3.262 3.406c-1.448-1.448-3.598-1.723-5.337-.869l-6.718-6.668V5.993L4.094-.006l-4 3.943 5.999 7.943 3.878.001 6.668 6.662c-.855 1.738-.578 3.889.869 5.336l7.312 7.318a2.336 2.336 0 0 0 3.294 0L31.41 27.9a2.334 2.334 0 0 0 0-3.294l-7.318-7.201zm-9.756 1.774-3.699-3.693-9.306 9.305a4.218 4.218 0 1 0 5.964 5.964l7.443-7.443c-.552-1.302-.733-2.733-.402-4.133zM4.094 29.491a1.5 1.5 0 1 1 .001-3.001 1.5 1.5 0 0 1-.001 3.001z"/></svg>