<svg xmlns="http://www.w3.org/2000/svg" viewBox="0 0 24 32"><path d="M5.373 13.39l18.352 5.263c.179.585.275 1.202.275 1.847a1.5 1.5 0 01-1.356 1.493L22.5 22H14v6.5a.5.5 0 01-.024.152l-.029.072-1.5 3a.5.5 0 01-.846.078l-.048-.078-1.5-3a.5.5 0 01-.047-.147L10 28.5V22H1.5A1.5 1.5 0 010 20.5c0-3.078 2.206-5.55 5.108-6.981l.265-.129zM3.5 0h17a1.5 1.5 0 011.493 1.356L22 1.5v3a1.5 1.5 0 01-1.356 1.493L20.5 6h-2.638l.659 6.375L5.853 8.742 6.138 6H3.5a1.5 1.5 0 01-1.493-1.356L2 4.5v-3A1.5 1.5 0 013.356.007L3.5 0h17-17z" fill="#000" fill-rule="evenodd"/></svg>