<?xml version="1.0" encoding="UTF-8"?>
<!DOCTYPE svg PUBLIC "-//W3C//DTD SVG 1.1//EN" "http://www.w3.org/Graphics/SVG/1.1/DTD/svg11.dtd">
<svg version="1.1" xmlns="http://www.w3.org/2000/svg" xmlns:xlink="http://www.w3.org/1999/xlink" x="0" y="0" width="32" height="32" viewBox="0, 0, 32, 32">
  <g id="Background">
    <rect x="0" y="0" width="32" height="32" fill="#B6B5B4"/>
  </g>
  <g id="Layer_1">
    <path d="M23,13.221 C23,13.011 22.913,12.83 22.74,12.676 L16.615,7.231 C16.447,7.079 16.227,6.996 16,7 C15.773,6.996 15.553,7.079 15.385,7.231 L9.26,12.676 C9.087,12.83 9,13.011 9,13.221 C9,13.432 9.087,13.614 9.26,13.768 C9.428,13.921 9.648,14.004 9.875,14 L22.125,14 C22.352,14.004 22.572,13.921 22.74,13.769 C22.913,13.615 23,13.432 23,13.222 z" fill="#FFFFFF" id="Path"/>
    <path d="M23,18.779 C23,18.989 22.913,19.17 22.74,19.324 L16.615,24.769 C16.447,24.921 16.227,25.004 16,25 C15.773,25.004 15.553,24.921 15.385,24.769 L9.26,19.324 C9.087,19.17 9,18.989 9,18.779 C9,18.568 9.087,18.385 9.26,18.231 C9.428,18.079 9.648,17.996 9.875,18 L22.125,18 C22.362,18 22.567,18.077 22.74,18.231 C22.913,18.385 23,18.568 23,18.778 z" fill="#FFFFFF" id="Path"/>
  </g>
</svg>
